<svg width="69" height="93" fill="none" xmlns="http://www.w3.org/2000/svg"><path d="M48.45 54.25H43.8a1.55 1.55 0 01-1.55-1.55H62.4a1.552 1.552 0 001.395-2.236l-.79-1.6A35.828 35.828 0 0159.3 33.053V24.8C59.3 11.103 48.197 0 34.5 0 20.803 0 9.7 11.104 9.7 24.8v8.253a35.829 35.829 0 01-3.699 15.81l-.79 1.599A1.548 1.548 0 006.6 52.7h20.15a1.55 1.55 0 01-1.55 1.55h-4.65C9.427 54.263.413 63.277.4 74.4v17.05c0 .856.694 1.55 1.55 1.55h65.1a1.55 1.55 0 001.55-1.55V74.4c-.013-11.123-9.027-20.137-20.15-20.15zM22.1 32.55v-6.2h4.65a13.794 13.794 0 0011.983-6.833A10.887 10.887 0 0046.9 23.25v9.3c0 6.849-5.551 12.4-12.4 12.4s-12.4-5.551-12.4-12.4zm-3.74-.91a3.08 3.08 0 01.64-4.86v5.34a3.097 3.097 0 01-.64-.48zM50 26.78a3.08 3.08 0 01.64 4.86 3.014 3.014 0 01-.64.478V26.78zM9.09 49.6a38.96 38.96 0 003.71-16.547V24.8c0-11.985 9.715-21.7 21.7-21.7 11.984 0 21.7 9.716 21.7 21.7v8.253A38.959 38.959 0 0059.91 49.6H42.25v-3.647a15.53 15.53 0 007.457-10.435A6.182 6.182 0 0050 23.47V21.7a1.55 1.55 0 00-1.55-1.55H46.9a7.77 7.77 0 01-6.944-4.315h-.027a1.53 1.53 0 00-.93-.93 1.55 1.55 0 00-1.965.97A10.819 10.819 0 0126.75 23.25h-6.2a6.2 6.2 0 00-1.257 12.268 15.53 15.53 0 007.457 10.435V49.6H9.09zm20.76 3.1v-5.364c3.027.952 6.273.952 9.3 0V52.7a4.65 4.65 0 004.65 4.65h1.426a10.836 10.836 0 01-21.452 0H25.2a4.65 4.65 0 004.65-4.65zm15.492 11.86L40.947 89.9H28.053l-4.395-25.34a13.92 13.92 0 0021.684 0zM3.5 74.4c.014-8.912 6.885-16.312 15.77-16.985L24.91 89.9H15.9V75.95a1.55 1.55 0 00-3.1 0V89.9H3.5V74.4zm62 15.5h-9.3V75.95a1.55 1.55 0 00-3.1 0V89.9h-9.009l5.638-32.485c8.886.673 15.757 8.073 15.771 16.985v15.5z" fill="url(#paint0_linear)"/><defs><linearGradient id="paint0_linear" x1="34.55" y1="96.407" x2="34.181" y2="-2.629" gradientUnits="userSpaceOnUse"><stop stop-color="#006DF0"/><stop offset="1" stop-color="#00E7F0"/></linearGradient></defs></svg>