<svg width="81" height="93" fill="none" xmlns="http://www.w3.org/2000/svg"><path d="M54.473 65.12h-4.647v-4.958a23.262 23.262 0 0010.4-15.344c3.177-.92 5.09-5.637 5.09-9.128a5.585 5.585 0 00-3.889-5.85A13.927 13.927 0 0049.06 6.45c-7.266-7.842-19.394-8.638-27.623-1.815-8.23 6.825-9.693 18.89-3.33 27.483a5.884 5.884 0 00-2.356 5.12c0 3.626 2.056 8.583 5.456 9.223A23.196 23.196 0 0031.24 60.162v4.957h-4.647A26.3 26.3 0 00.26 91.451 1.55 1.55 0 001.81 93h77.446a1.55 1.55 0 001.549-1.55c-.017-14.535-11.797-26.314-26.332-26.33zM34.337 67.7v-5.859c.139.06.286.098.427.154.602.251 1.215.475 1.839.674.233.074.464.155.703.217.825.24 1.662.436 2.507.586l.465.075c.168.03.34.03.508 0l.465-.075a23.814 23.814 0 002.51-.577c.236-.068.464-.143.704-.218a22.108 22.108 0 001.846-.676c.137-.055.282-.092.419-.154v5.849l-3.888 5.167h-4.633L34.337 67.7zm26.332-27.007V32.83c1.06.403 1.549 1.33 1.549 2.86a9.294 9.294 0 01-1.55 5.004zM34.337 3.162a17.037 17.037 0 0112.978 5.992c.376.44.966.634 1.53.503a10.843 10.843 0 0110.688 17.69c-.042-.071-.102-.155-.146-.22-.204-.34-.432-.686-.686-1.039-.078-.109-.155-.215-.233-.327a22.518 22.518 0 00-1.125-1.372c-.085-.096-.182-.195-.268-.291a32.67 32.67 0 00-1.568-1.6 41.394 41.394 0 00-1.668-1.522 54.237 54.237 0 00-4.701-3.612 1.548 1.548 0 00-1.796.053l-8.416 6.385a20.156 20.156 0 01-12.025 4.112h-.363a6.282 6.282 0 00-.93.08c-.044 0-.087.019-.131.028a6.283 6.283 0 00-.801.197l-.077.028a5.97 5.97 0 00-.82.342h-.014a6.111 6.111 0 00-2.574 2.454 17.039 17.039 0 0113.146-27.88zm-15.49 34.077a2.73 2.73 0 011.337-2.747c.071.07.14.143.212.21v5.851c0 .603.023 1.203.07 1.8a9.307 9.307 0 01-1.619-5.114zm5.076 7.386a19.236 19.236 0 01-.429-4.072v-6.521a2.93 2.93 0 01.146-.834c.015-.052.03-.104.05-.156.095-.271.23-.528.399-.762.017-.023.037-.043.054-.065.177-.23.386-.434.62-.607l.018-.015c.239-.168.5-.3.774-.395.044-.016.087-.028.133-.042.281-.09.574-.138.87-.144h.351a23.338 23.338 0 0013.968-4.802l7.436-5.638a54.4 54.4 0 013.506 2.757c.402.345.784.686 1.146 1.024a14.873 14.873 0 014.516 6.03c.056.215.087.437.09.66v9.51c.003.892-.06 1.782-.19 2.664a20.185 20.185 0 01-9.887 14.777 19.7 19.7 0 01-6.751 2.43l-.21.026-.205-.032a20.345 20.345 0 01-6.766-2.433 20.15 20.15 0 01-9.639-13.36zM10.151 75.014a23.153 23.153 0 0116.441-6.797h4.647c0 .335.108.661.31.93l4.24 5.653-2.746 15.102H3.409a23.122 23.122 0 016.742-14.888zm26.044 14.888l2.535-13.94h3.612l2.527 13.94h-8.674zm11.83 0L45.278 74.8l4.003-5.344.233-.31a1.55 1.55 0 00.312-.929h4.647c12.224.015 22.352 9.489 23.182 21.685h-29.63z" fill="url(#paint0_linear)"/><defs><linearGradient id="paint0_linear" x1="40.532" y1="96.239" x2="40.532" y2="-14.101" gradientUnits="userSpaceOnUse"><stop stop-color="#006DF0"/><stop offset="1" stop-color="#00E7F0"/></linearGradient></defs></svg>